<svg xmlns="http://www.w3.org/2000/svg" width="76.872" height="76.871" viewBox="0 0 76.872 76.871">
  <path id="Path_40" data-name="Path 40" d="M53.006,26.936,74.86,5.082a6.87,6.87,0,0,0,0-9.714L70-9.489a6.87,6.87,0,0,0-9.714,0L38.436,12.365,16.582-9.489a6.87,6.87,0,0,0-9.714,0L2.011-4.632a6.87,6.87,0,0,0,0,9.714L23.865,26.936,2.011,48.789a6.87,6.87,0,0,0,0,9.714L6.868,63.36a6.87,6.87,0,0,0,9.714,0L38.436,41.506,60.29,63.36a6.87,6.87,0,0,0,9.714,0L74.86,58.5a6.87,6.87,0,0,0,0-9.714Z" transform="translate(0 11.5)" fill="red"/>
</svg>
